<?xml version="1.0" encoding="UTF-8"?>
<svg width="951px" height="993px" viewBox="0 0 951 993" version="1.1" xmlns="http://www.w3.org/2000/svg" xmlns:xlink="http://www.w3.org/1999/xlink">
    <title>Group</title>
    <defs>
        <polygon id="path-1" points="125.969906 340.226928 155.394424 406.424818 406.788798 972 797.955748 815.096956 950.632524 753.855967 861.315303 569.381599 585.636992 0 26.6325236 130.305823"></polygon>
        <filter x="-0.2%" y="-0.2%" width="100.3%" height="100.3%" filterUnits="objectBoundingBox" id="filter-2">
            <feGaussianBlur stdDeviation="1" in="SourceAlpha" result="shadowBlurInner1"></feGaussianBlur>
            <feOffset dx="0" dy="1" in="shadowBlurInner1" result="shadowOffsetInner1"></feOffset>
            <feComposite in="shadowOffsetInner1" in2="SourceAlpha" operator="arithmetic" k2="-1" k3="1" result="shadowInnerInner1"></feComposite>
            <feColorMatrix values="0 0 0 0 0   0 0 0 0 0   0 0 0 0 0  0 0 0 0.25 0" type="matrix" in="shadowInnerInner1"></feColorMatrix>
        </filter>
    </defs>
    <g id="Page-1" stroke="none" stroke-width="1" fill="none" fill-rule="evenodd">
        <g id="Group" transform="translate(0.3675, 0)">
            <polygon id="Path" stroke="#2A3499" fill="#2A3499" transform="translate(269.2858, 802.8353) rotate(-1) translate(-269.2858, -802.8353)" points="269.270337 645.63002 170.812911 763.39331 187.150405 960.040635 367.75864 861.788363"></polygon>
            <path d="M35.32979,127.66336 L8,151.123801 L374.181568,988.671382 L425.580509,960.605581 C350.91525,788.713387 292.503527,654.321942 250.345341,557.431247 C208.187154,460.540552 136.515304,317.28459 35.32979,127.66336 Z" id="Path-2" stroke="#303F9F" fill="#303F9F" transform="translate(216.7903, 558.1674) rotate(-1) translate(-216.7903, -558.1674)"></path>
            <g id="Path">
                <use fill="#404040" fill-rule="evenodd" xlink:href="#path-1"></use>
                <use fill="black" fill-opacity="1" filter="url(#filter-2)" xlink:href="#path-1"></use>
                <path stroke="#3F51B5" stroke-width="65" d="M567.708851,37.5504097 L832.063574,583.544451 L906.198717,736.661997 L785.856555,784.933078 L423.763456,930.174156 L185.092761,393.224107 L155.511648,326.673917 L73.2384699,152.81312 L567.708851,37.5504097 Z" stroke-linejoin="square"></path>
            </g>
            <path d="M507.696674,267.565658 C509.135476,267.565658 510.574278,267.16364 512.013081,266.359603 C513.451883,265.555567 515.398497,263.926335 517.852924,261.471908 L548.829487,231.764877 C549.845112,230.833887 550.43756,229.712468 550.606831,228.400619 C550.776101,227.08877 550.43756,225.882715 549.591206,224.782455 C545.359435,219.450423 539.561909,214.795475 532.198627,210.817611 C524.835346,206.839746 516.668028,204.850814 507.696674,204.850814 C498.556049,204.850814 490.261778,206.924382 482.813862,211.071517 C475.365945,215.218653 469.610737,220.042871 465.548237,225.544173 C464.871153,226.559798 464.638406,227.617741 464.849995,228.718002 C465.061583,229.818262 465.67519,230.833887 466.690815,231.764877 L497.540424,261.471908 C499.994851,263.841699 501.962625,265.449772 503.443745,266.296127 C504.924864,267.142481 506.342508,267.565658 507.696674,267.565658 Z M433.556049,198.503158 C434.910216,199.772689 436.370177,200.343978 437.935932,200.217025 C439.501687,200.090072 440.919331,199.349512 442.188862,197.995345 C449.806049,189.531804 459.454487,182.549382 471.134174,177.04808 C482.813862,171.546778 495.001362,168.838444 507.696674,168.92308 C520.561258,168.838444 532.833393,171.610254 544.513081,177.238509 C556.192768,182.866765 565.925841,189.912663 573.712299,198.376205 C574.897195,199.645736 576.251362,200.280502 577.774799,200.280502 C579.298237,200.280502 580.694721,199.645736 581.964252,198.376205 L601.641987,178.825423 C602.657612,177.809798 603.207742,176.646061 603.292377,175.334212 C603.377013,174.022363 602.953836,172.816309 602.022846,171.716048 C595.67519,163.844955 587.655984,156.820215 577.965229,150.64183 C568.274474,144.463444 557.44114,139.575749 545.465229,135.978744 C533.489318,132.381738 520.899799,130.583236 507.696674,130.583236 C494.493549,130.583236 481.92519,132.381738 469.991596,135.978744 C458.058002,139.575749 447.245828,144.463444 437.555073,150.64183 C427.864318,156.820215 419.802794,163.844955 413.370502,171.716048 C412.439513,172.816309 412.016336,174.001205 412.100971,175.270736 C412.185607,176.540267 412.778054,177.725163 413.878315,178.825423 L433.556049,198.503158 Z M380.743549,145.436752 C381.928445,146.706283 383.346088,147.31989 384.996479,147.277572 C386.64687,147.235254 388.064513,146.57933 389.249409,145.309798 C404.822325,128.721257 422.701557,116.131738 442.887104,107.541244 C463.072651,98.9507489 484.675841,94.6555015 507.696674,94.6555015 C530.886778,94.6555015 552.595763,98.9719078 572.823627,107.60472 C593.051492,116.237533 610.909565,128.84821 626.397846,145.436752 C627.582742,146.621647 628.958068,147.192936 630.523823,147.150619 C632.089578,147.108301 633.464903,146.452377 634.649799,145.182845 L652.169331,127.663314 C653.269591,126.478418 653.84088,125.251205 653.885958,123.981673 C653.925515,122.712142 653.481179,121.527246 652.55019,120.426986 C642.647846,108.15485 630.121804,97.2157229 614.972065,87.6096031 C599.822325,78.0034833 583.064513,70.4286135 564.698627,64.8849937 C546.332742,59.3413739 527.332091,56.569564 507.696674,56.569564 C488.061258,56.569564 469.060607,59.3202151 450.694721,64.8215171 C432.328836,70.3228192 415.571023,77.897689 400.421284,87.5461265 C385.271544,97.194564 372.745502,108.15485 362.843159,120.426986 C361.996804,121.527246 361.594786,122.712142 361.637104,123.981673 C361.679422,125.251205 362.208393,126.478418 363.224018,127.663314 L380.743549,145.436752 Z" id="Shape" fill="#3F51B5" fill-rule="nonzero" transform="translate(507.76, 162.0676) rotate(567) translate(-507.76, -162.0676)"></path>
        </g>
    </g>
</svg>